<svg width="18" height="22" viewBox="0 0 18 22" fill="none" xmlns="http://www.w3.org/2000/svg">
<path fill-rule="evenodd" clip-rule="evenodd" d="M0 7C0 5.34315 1.34315 4 3 4H11C12.6569 4 14 5.34315 14 7V19C14 20.6569 12.6569 22 11 22H3C1.34315 22 0 20.6569 0 19V7ZM3 6C2.44772 6 2 6.44772 2 7V19C2 19.5523 2.44772 20 3 20H11C11.5523 20 12 19.5523 12 19V7C12 6.44772 11.5523 6 11 6H3Z" fill="#8C8C8C"/>
<path fill-rule="evenodd" clip-rule="evenodd" d="M4 2.00002C4 0.895479 4.8954 0 6 0H15C16.6569 0 18 1.34315 18 3V16C18 17.1046 17.1046 18 16 18H15V16H16V3C16 2.44772 15.5523 2 15 2H6V3H4V2.00002Z" fill="#8C8C8C"/>
</svg>