<svg width="24" height="26" viewBox="0 0 24 26" fill="none" xmlns="http://www.w3.org/2000/svg">
<path d="M8.50366 17.4239L3.35813 17.4239C2.38393 17.4349 1.45404 17.0176 0.814749 16.2824C0.17546 15.5472 -0.108719 14.5684 0.0377357 13.6035L1.56496 3.64334C1.81324 2.00613 3.22978 0.802073 4.87309 0.820721H17.3587C17.97 0.820721 18.4656 1.31629 18.4656 1.9276V14.1033C18.4656 14.2582 18.4331 14.4113 18.3702 14.5528L13.9427 24.5148C13.765 24.9145 13.3686 25.1721 12.9312 25.1721C10.4859 25.1721 8.50366 23.1898 8.50366 20.7446V17.4239ZM4.86058 3.03441C4.30864 3.02817 3.83646 3.42953 3.75342 3.97706L2.22618 13.9373C2.17744 14.2584 2.27217 14.5847 2.48527 14.8298C2.69836 15.0748 3.00833 15.2139 3.34559 15.2102H9.61054C10.2219 15.2102 10.7174 15.7057 10.7174 16.3171V20.7446C10.7174 21.7325 11.3646 22.5694 12.2582 22.8542L16.2518 13.8684V3.03434L4.86058 3.03441ZM18.4656 12.9965L20.3337 12.9966C21.0475 13.0092 21.6608 12.5011 21.7862 11.8046V4.22634C21.6608 3.52984 21.047 3.02169 20.3141 3.03448H18.4656V12.9965ZM17.3587 0.820721L20.2945 0.820894C22.1526 0.788034 23.7409 2.15143 23.99 3.993L24 4.14136V11.8895L23.99 12.0379C23.7409 13.8795 22.1526 15.2429 20.3141 15.2102H17.3587C16.7474 15.2102 16.2518 14.7146 16.2518 14.1033V1.9276C16.2518 1.31629 16.7474 0.820721 17.3587 0.820721Z" fill="#8C8C8C"/>
</svg>
