<svg width="24" height="26" viewBox="0 0 24 26" fill="none" xmlns="http://www.w3.org/2000/svg">
<mask id="mask0_219_2854" style="mask-type:alpha" maskUnits="userSpaceOnUse" x="0" y="0" width="24" height="26">
<path d="M20.6419 8.56855C21.6161 8.55752 22.546 8.97487 23.1853 9.71005C23.8245 10.4452 24.1087 11.4241 23.9623 12.389L22.435 22.3491C22.1868 23.9863 20.7702 25.1904 19.1269 25.1717H6.64129C6.02998 25.1717 5.53441 24.6761 5.53441 24.0648V11.8891C5.53441 11.7343 5.56691 11.5811 5.62981 11.4396L10.0573 1.47765C10.235 1.07792 10.6314 0.820312 11.0688 0.820312C13.5141 0.820312 15.4963 2.80258 15.4963 5.24784V8.5685L20.6419 8.56855ZM7.74817 22.9581L19.1394 22.958C19.6914 22.9643 20.1635 22.5629 20.2466 22.0154L21.7738 12.0551C21.8226 11.734 21.7278 11.4077 21.5147 11.1627C21.3016 10.9176 20.9917 10.7785 20.6544 10.7822H14.3895C13.7781 10.7822 13.2826 10.2867 13.2826 9.67536V5.24784C13.2826 4.25987 12.6354 3.42307 11.7419 3.13824L7.74817 12.124V22.9581ZM5.53441 12.996H3.32064C2.70933 12.996 2.21376 13.4916 2.21376 14.1029V21.8511C2.21376 22.4624 2.70933 22.9579 3.32064 22.9579H5.53441V12.996ZM6.64129 25.1717H3.32064C1.4867 25.1717 0 23.685 0 21.8511V14.1029C0 12.2689 1.4867 10.7822 3.32064 10.7822H6.64129C7.2526 10.7822 7.74817 11.2778 7.74817 11.8891V24.0648C7.74817 24.6761 7.2526 25.1717 6.64129 25.1717Z" fill="white"/>
</mask>
<g mask="url(#mask0_219_2854)">
<path d="M20.6419 8.56855C21.6161 8.55752 22.546 8.97487 23.1853 9.71005C23.8245 10.4452 24.1087 11.4241 23.9623 12.389L22.435 22.3491C22.1868 23.9863 20.7702 25.1904 19.1269 25.1717H6.64129C6.02998 25.1717 5.53441 24.6761 5.53441 24.0648V11.8891C5.53441 11.7343 5.56691 11.5811 5.62981 11.4396L10.0573 1.47765C10.235 1.07792 10.6314 0.820312 11.0688 0.820312C13.5141 0.820312 15.4963 2.80258 15.4963 5.24784V8.5685L20.6419 8.56855ZM7.74817 22.9581L19.1394 22.958C19.6914 22.9643 20.1635 22.5629 20.2466 22.0154L21.7738 12.0551C21.8226 11.734 21.7278 11.4077 21.5147 11.1627C21.3016 10.9176 20.9917 10.7785 20.6544 10.7822H14.3895C13.7781 10.7822 13.2826 10.2867 13.2826 9.67536V5.24784C13.2826 4.25987 12.6354 3.42307 11.7419 3.13824L7.74817 12.124V22.9581ZM5.53441 12.996H3.32064C2.70933 12.996 2.21376 13.4916 2.21376 14.1029V21.8511C2.21376 22.4624 2.70933 22.9579 3.32064 22.9579H5.53441V12.996ZM6.64129 25.1717H3.32064C1.4867 25.1717 0 23.685 0 21.8511V14.1029C0 12.2689 1.4867 10.7822 3.32064 10.7822H6.64129C7.2526 10.7822 7.74817 11.2778 7.74817 11.8891V24.0648C7.74817 24.6761 7.2526 25.1717 6.64129 25.1717Z" fill="#8C8C8C"/>
</g>
</svg>
